<svg width="400" height="300" viewBox="0 0 400 300" fill="none" xmlns="http://www.w3.org/2000/svg">
  <!-- Background circle -->
  <circle cx="200" cy="150" r="120" fill="#E6FFFA" opacity="0.8"/>
  
  <!-- Clipboard body -->
  <rect x="140" y="80" width="120" height="180" rx="8" fill="white" stroke="#4FD1C5" stroke-width="3"/>
  <rect x="140" y="80" width="120" height="40" rx="8" fill="#4FD1C5" opacity="0.2"/>
  <rect x="170" y="90" width="60" height="20" rx="4" fill="#4FD1C5"/>
  
  <!-- Checklist items -->
  <!-- Completed item -->
  <rect x="150" y="140" width="20" height="20" rx="4" fill="#4FD1C5" stroke="#4FD1C5" stroke-width="2"/>
  <path d="M155 155L165 165M165 155L155 165" stroke="white" stroke-width="2" stroke-linecap="round"/>
  <line x1="155" y1="155" x2="165" y2="165" stroke="white" stroke-width="2" stroke-linecap="round"/>
  <text x="180" y="155" font-family="Arial" font-size="14" fill="#2D3748">Buy groceries</text>
  
  <!-- Current item -->
  <rect x="150" y="170" width="20" height="20" rx="4" fill="white" stroke="#4FD1C5" stroke-width="2"/>
  <text x="180" y="185" font-family="Arial" font-size="14" fill="#2D3748">Finish project</text>
  
  <!-- Next item -->
  <rect x="150" y="200" width="20" height="20" rx="4" fill="white" stroke="#CBD5E0" stroke-width="2"/>
  <text x="180" y="215" font-family="Arial" font-size="14" fill="#CBD5E0">Call mom</text>
  
  <!-- Plus button -->
  <circle cx="200" cy="240" r="20" fill="#4FD1C5"/>
  <path d="M190 240H210M200 230V250" stroke="white" stroke-width="2" stroke-linecap="round"/>
  
  <!-- Decorative elements -->
  <circle cx="100" cy="100" r="8" fill="#F687B3" opacity="0.4"/>
  <circle cx="300" cy="200" r="12" fill="#F6AD55" opacity="0.4"/>
  <rect x="80" y="220" width="16" height="16" rx="4" fill="#68D391" opacity="0.4" transform="rotate(15 80 220)"/>
</svg>